<svg xmlns="http://www.w3.org/2000/svg" width="20" height="16" viewBox="0 0 20 16">
    <g fill="none" fill-rule="evenodd">
        <g fill="#2C2B2C" fill-rule="nonzero">
            <g>
                <g>
                    <g>
                        <path d="M3 16C1.402 16 .096 14.751.005 13.176L0 13V2.5C0 1.175 1.032.09 2.336.005L2.5 0h15l.164.005C18.968.09 20 1.175 20 2.5V13l-.005.176C19.904 14.751 18.598 16 17 16H3zm14-2l.117-.007c.497-.057.883-.48.883-.993V3.215l-7.37 6-.112.08c-.155.094-.334.145-.518.145s-.363-.051-.518-.146l-.112-.079-7.37-6V13c0 .513.386.936.883.993L3 14h14zM3.675 2L10 7.16 16.325 2H3.675z" transform="translate(-360 -828) translate(256 656) translate(72 152) translate(32 20)"/>
                    </g>
                </g>
            </g>
        </g>
    </g>
</svg>
