<svg xmlns="http://www.w3.org/2000/svg" xmlns:xlink="http://www.w3.org/1999/xlink" width="165" height="32" viewBox="0 0 165 32">
    <defs>
        <path id="rp8q92kbya" d="M0 0H165V32H0z"/>
    </defs>
    <g fill="none" fill-rule="evenodd">
        <g>
            <g transform="translate(-144 -80) translate(144 80)">
                <mask id="68cflovx9b" fill="#fff">
                    <use xlink:href="#rp8q92kbya"/>
                </mask>
                <g fill="#171919" mask="url(#68cflovx9b)">
                    <path d="M29.153 6.888C30.948 9.474 32 12.614 32 16c0 3.387-1.052 6.527-2.847 9.113l-4.144-4.145c.814-1.472 1.277-3.166 1.277-4.968 0-1.801-.463-3.495-1.277-4.967l4.144-4.145z"/>
                    <path d="M25.113 2.847L20.968 6.99C19.495 6.177 17.802 5.714 16 5.714 10.32 5.714 5.714 10.32 5.714 16c0 5.68 4.605 10.286 10.286 10.286 1.802 0 3.495-.463 4.968-1.277l4.145 4.144C22.526 30.948 19.386 32 16 32 7.164 32 0 24.837 0 16 0 7.164 7.164 0 16 0c3.386 0 6.526 1.052 9.113 2.847z"/>
                </g>
                <g fill="#141414" fill-rule="nonzero" mask="url(#68cflovx9b)">
                    <path d="M13.29 3.517c2.016-.029 3.84 1.47 4.171 3.575.498 2.767-1.547 5.19-4.116 5.19-1.105 0-1.962-.462-2.542-1.183-.055-.058-.138-.029-.138.058v4.757c0 .057-.028.086-.083.086H9.256c-.056 0-.083-.029-.083-.086V3.834c0-.057.027-.086.083-.086h1.353c.056 0 .083.029.083.086v.807c0 .087.083.116.138.058.58-.72 1.41-1.153 2.46-1.182zm-9.09.087c2.32 0 4.2 1.96 4.2 4.382 0 2.421-1.88 4.382-4.2 4.382-2.321 0-4.2-1.96-4.2-4.382 0-2.422 1.879-4.382 4.2-4.382zm47.001 0c2.321 0 4.2 1.96 4.2 4.382 0 2.421-1.879 4.382-4.2 4.382-2.32 0-4.2-1.96-4.2-4.382 0-2.422 1.88-4.382 4.2-4.382zm48.572 0c2.045-.087 3.785 1.383 4.227 3.373 0 .028 0 .057-.055.086l-1.354.606-4.641 2.046c-.056.03-.056.087-.028.145.497.576 1.187.922 1.99.922 1.022 0 1.906-.605 2.403-1.47 0-.058.055-.058.083-.058l1.354.26c.055 0 .083.057.055.115-.636 1.585-2.128 2.71-3.868 2.71-2.404 0-4.31-2.076-4.2-4.584.083-2.249 1.88-4.065 4.034-4.151zm-33.79 0c2.044-.087 3.785 1.383 4.227 3.373 0 .028 0 .057-.055.086l-1.354.605-4.642 2.047c-.055.03-.055.087-.027.144.497.577 1.188.923 1.989.923.995 0 1.906-.605 2.404-1.47 0-.058.055-.058.083-.058l1.353.26c.056 0 .083.057.056.115-.636 1.585-2.128 2.71-3.868 2.71-2.404 0-4.31-2.076-4.2-4.584.083-2.249 1.879-4.065 4.034-4.151zm-43.659 0c2.045-.087 3.785 1.383 4.227 3.373 0 .028 0 .057-.055.086l-1.354.605-4.641 2.047c-.056.03-.056.087-.028.144.497.577 1.188.923 1.99.923 1.022 0 1.906-.605 2.403-1.47 0-.058.055-.058.083-.058l1.354.26c.055 0 .083.057.055.115-.636 1.585-2.128 2.71-3.868 2.71-2.404 0-4.31-2.076-4.2-4.584.083-2.249 1.88-4.065 4.034-4.151zM46.56 4.987c.027.03.027.087 0 .116l-.967 1.009c-.028.029-.083.029-.11 0-.609-.721-1.576-1.096-2.598-.865-.94.202-1.879 1.21-2.044 2.19-.304 1.788.994 3.345 2.652 3.345.801 0 1.52-.346 1.99-.98.027-.029.082-.029.11 0l.967 1.009c.027.029.027.057 0 .086-.774.865-1.879 1.413-3.095 1.413-2.403 0-4.31-2.076-4.2-4.584.111-2.22 1.88-4.036 4.007-4.151 1.299-.058 2.487.49 3.288 1.412zm28.375-1.412c1.298-.058 2.486.49 3.288 1.412.027.03.027.087 0 .116l-.967 1.009c-.028.029-.083.029-.111 0-.608-.721-1.575-1.096-2.597-.865-.94.202-1.879 1.21-2.045 2.19-.304 1.788.995 3.345 2.653 3.345.8 0 1.52-.346 1.989-.98.028-.029.083-.029.11 0l.968 1.009c.027.029.027.057 0 .086-.774.865-1.88 1.413-3.095 1.413-2.404 0-4.31-2.076-4.2-4.584.111-2.22 1.88-4.036 4.007-4.151zm-43.549.029c2.93 0 4.034 2.162 4.007 4.583v3.979c0 .057-.056.086-.083.086h-1.354c-.055 0-.083-.057-.083-.086V8.187c0-1.556-.58-2.882-2.514-2.882-1.465 0-2.487 1.124-2.487 2.71v4.15c0 .058-.055.087-.083.087h-1.354c-.055 0-.082-.057-.082-.086V3.834c0-.057.055-.086.082-.086h1.354c.056 0 .083.057.083.086v1.01c0 .057.11.086.138.028.47-.692 1.492-1.268 2.376-1.268zM57.832 0c.028 0 .056.029.083.086v12.05c0 .059-.027.087-.083.087H56.48c-.056 0-.083-.028-.083-.086V.087c0-.058.027-.087.083-.087zm24.535 0c.055 0 .083.029.083.086V3.69c0 .029.027.058.055.058h1.52c.027 0 .082.057.082.086v1.413c0 .058-.027.086-.083.086h-1.519c-.028 0-.055.03-.055.058v6.746c0 .058-.028.086-.083.086h-1.354c-.055 0-.083-.028-.083-.086V5.39c0-.029-.028-.058-.055-.058h-1.492c-.055 0-.083-.028-.083-.086V3.834c0-.057.028-.086.083-.086h1.492c.027 0 .055-.03.055-.058V.086c0-.057.028-.086.083-.086h1.354zm4.448 3.748c.055 0 .083.057.083.086v8.303c0 .058-.028.086-.083.086H85.46c-.055 0-.083-.028-.083-.086V3.834c0-.057.028-.086.083-.086h1.354zM60.789 0c.027 0 .083.029.083.086v12.05c0 .059-.028.087-.083.087h-1.354c-.055 0-.083-.028-.083-.086V.087c0-.058.028-.087.083-.087h1.354zm28.679 3.748c.055 0 .083.029.083.057l2.154 6.602c.056.144.222.144.276 0l2.156-6.602c.027-.028.055-.057.083-.057h1.326c.055 0 .083.057.027.115l-2.735 8.303c-.027.029-.055.057-.083.057h-1.878c-.056 0-.083-.028-.083-.057l-2.735-8.303c0-.058.027-.115.083-.115h1.326zM51.2 5.189c-1.492 0-2.68 1.269-2.68 2.797 0 1.528 1.216 2.796 2.68 2.796 1.465 0 2.68-1.268 2.68-2.796 0-1.528-1.188-2.797-2.68-2.797zM4.2 5.19c-1.465 0-2.68 1.269-2.68 2.797 0 1.528 1.215 2.796 2.68 2.796 1.464 0 2.68-1.268 2.68-2.796 0-1.528-1.188-2.797-2.68-2.797zm8.703-.029c-1.105.173-1.99 1.125-2.183 2.278-.304 1.903 1.27 3.546 3.094 3.229 1.106-.202 2.017-1.125 2.183-2.278.304-1.903-1.27-3.546-3.094-3.229zm87.008.03c-1.492 0-2.708 1.239-2.68 2.824v.231c0 .029.055.087.11.058.056-.03 4.532-2.018 4.532-2.018.055-.03.055-.087.028-.144-.47-.577-1.189-.952-1.99-.952zm-33.79 0c-1.492 0-2.708 1.239-2.68 2.824v.231c0 .029.055.087.11.058.026-.014 1.015-.454 2.062-.92l.45-.2 2.02-.898c.055-.03.055-.087.027-.144-.47-.577-1.188-.952-1.989-.952zm-43.659 0c-1.464 0-2.68 1.239-2.68 2.824v.231c0 .029.056.087.11.058.056-.03 4.532-2.018 4.532-2.018.055-.03.055-.087.028-.144-.47-.577-1.188-.952-1.99-.952zm64.353-4.152c.055 0 .083.029.083.086v1.413c0 .058-.028.086-.083.086H85.46c-.055 0-.083-.028-.083-.086V1.124c0-.057.028-.086.083-.086h1.354z" transform="translate(40 8)"/>
                </g>
            </g>
        </g>
    </g>
</svg>
