<?xml version="1.0" encoding="UTF-8"?>
<svg width="138px" height="31px" viewBox="0 0 138 31" version="1.1" xmlns="http://www.w3.org/2000/svg" xmlns:xlink="http://www.w3.org/1999/xlink">
    <title>logo-oc-white</title>
    <defs>
        <filter id="filter-1">
            <feColorMatrix in="SourceGraphic" type="matrix" values="0 0 0 0 0.968627 0 0 0 0 0.972549 0 0 0 0 0.980392 0 0 0 1.000000 0"></feColorMatrix>
        </filter>
    </defs>
    <g id="Symbols" stroke="none" stroke-width="1" fill="none" fill-rule="evenodd">
        <g id="Screen-Shot-2021-02-07-at-0.14.44" transform="translate(-179.000000, -5.000000)">
            <g id="logo-oc-white" transform="translate(179.000000, 5.000000)" filter="url(#filter-1)">
                <g>
                    <g id="opencollective-icon" fill="#171919">
                        <path d="M27.819298,6.57257647 C29.5320784,9.04034863 30.5358523,12.0368889 30.5358523,15.2682601 C30.5358523,18.4996314 29.5320784,21.4964484 27.819298,23.9639438 L23.8643203,20.0090614 C24.6410784,18.6037399 25.0831817,16.987434 25.0831817,15.2682601 C25.0831817,13.5490863 24.6410784,11.9330667 23.8643203,10.5277451 L27.819298,6.57257647 Z" id="Path"></path>
                        <path d="M23.9636575,2.71660196 L20.0084889,6.67151294 C18.6031673,5.89482157 16.9871477,5.45273739 15.2679739,5.45273739 C9.84727059,5.45273739 5.45274693,9.84727059 5.45274693,15.2679739 C5.45274693,20.6886771 9.84727059,25.0831817 15.2679739,25.0831817 C16.9871477,25.0831817 18.6031673,24.6411739 20.0084889,23.8644157 L23.9636575,27.8193935 C21.4958758,29.5320784 18.4993451,30.5359477 15.2679739,30.5359477 C6.83577725,30.5359477 0,23.7001895 0,15.2679739 C0,6.83576771 6.83577725,0 15.2679739,0 C18.4993451,0 21.4958758,1.00384065 23.9636575,2.71660196 Z" id="Path"></path>
                    </g>
                    <g id="logotype" transform="translate(38.169935, 7.633987)" fill="#141414" fill-rule="nonzero">
                        <path d="M12.6814894,3.35619798 C14.6061445,3.32869152 16.3461615,4.75920424 16.6625354,6.76742495 C17.1371365,9.40836656 15.1861502,11.7192146 12.7342317,11.7192146 C11.679625,11.7192146 10.8623189,11.2790148 10.3086444,10.5913131 C10.2559021,10.536268 10.1768286,10.5637504 10.1768286,10.6462778 L10.1768286,15.1854464 C10.1768286,15.2404915 10.1504974,15.2679739 10.0977551,15.2679739 L8.83217907,15.2679739 C8.77951677,15.2679739 8.75310558,15.2404915 8.75310558,15.1854464 L8.75310558,3.65880922 C8.75310558,3.60378826 8.77951677,3.5762818 8.83217907,3.5762818 L10.1240862,3.5762818 C10.1768286,3.5762818 10.2031597,3.60378826 10.2031597,3.65880922 L10.2031597,4.42908654 C10.2031597,4.51161395 10.2823132,4.53912041 10.3349755,4.48409946 C10.88865,3.79635759 11.679625,3.38371247 12.6814894,3.35619798 Z M4.00745567,3.4387495 C6.22209763,3.4387495 8.01487292,5.30942184 8.01487292,7.62024575 C8.01487292,9.93109377 6.22209763,11.801742 4.00745567,11.801742 C1.7928057,11.801742 2.95478964e-14,9.93109377 2.95478964e-14,7.62024575 C2.95478964e-14,5.30942184 1.7928057,3.4387495 4.00745567,3.4387495 Z M48.8588915,3.4387495 C51.0735094,3.4387495 52.8663488,5.30942184 52.8663488,7.62024575 C52.8663488,9.93109377 51.0735094,11.801742 48.8588915,11.801742 C46.6441935,11.801742 44.8514342,9.93109377 44.8514342,7.62024575 C44.8514342,5.30942184 46.6441935,3.4387495 48.8588915,3.4387495 Z M95.2081217,3.43877361 C97.1593481,3.35624619 98.8200514,4.75924442 99.2418301,6.65743125 C99.2418301,6.68493771 99.2418301,6.71244417 99.1890077,6.73995867 L99.1890077,6.73995867 L97.8972606,7.3176988 L93.4681848,9.27087444 C93.4153624,9.29835679 93.4153624,9.35340186 93.4417736,9.40844692 C93.9163746,9.95857613 94.5750536,10.2887662 95.3401776,10.2887662 C96.3157908,10.2887662 97.1593481,9.71099388 97.6339491,8.88571971 C97.6339491,8.83067465 97.6867715,8.83067465 97.7131826,8.83067465 L97.7131826,8.83067465 L99.0049297,9.0782569 C99.0577521,9.0782569 99.0841633,9.13330196 99.0577521,9.18834702 C98.4510952,10.7014032 97.0272921,11.7742596 95.3665888,11.7742596 C93.0728173,11.7742596 91.2536468,9.79352129 91.3592916,7.40022621 C91.4377248,5.25442499 93.1520509,3.52130103 95.2081217,3.43877361 Z M62.9640654,3.43872539 C64.9150517,3.35619798 66.5759952,4.7591962 66.9978538,6.657375 C66.9978538,6.68488949 66.9978538,6.71239595 66.9451115,6.73991045 L66.9451115,6.73991045 L65.6532844,7.31761844 L61.2239684,9.27079408 C61.1712261,9.29835679 61.1712261,9.3533215 61.1976373,9.40836656 C61.6721583,9.95857613 62.3313174,10.2886858 63.0958813,10.2886858 C64.0450032,10.2886858 64.9150517,9.71099388 65.3895727,8.88563935 C65.3895727,8.83067465 65.442315,8.83067465 65.4687262,8.83067465 L65.4687262,8.83067465 L66.7605533,9.0782569 C66.8132957,9.0782569 66.8396268,9.13330196 66.8132957,9.18826667 C66.2068788,10.7013229 64.7832359,11.7741793 63.1222124,11.7741793 C60.828521,11.7741793 59.0093505,9.79352129 59.1147551,7.40014585 C59.1939087,5.25437677 60.9075945,3.52125281 62.9640654,3.43872539 Z M21.3027407,3.43872539 C23.253727,3.35619798 24.9147505,4.7591962 25.3366092,6.65738303 C25.3366092,6.68488949 25.3366092,6.71239595 25.2838668,6.73991045 L25.2838668,6.73991045 L23.9919597,7.31761844 L19.5627238,9.27079408 C19.5099814,9.29835679 19.5099814,9.3533215 19.5363126,9.40836656 C20.0109136,9.95857613 20.6699927,10.2886858 21.4345565,10.2886858 C22.4100897,10.2886858 23.253727,9.71099388 23.728328,8.88563935 C23.728328,8.83067465 23.7810703,8.83067465 23.8074015,8.83067465 L23.8074015,8.83067465 L25.0993087,9.0782569 C25.152051,9.0782569 25.1783821,9.13330196 25.152051,9.18826667 C24.5456342,10.7013229 23.1219112,11.7741793 21.4609677,11.7741793 C19.1671962,11.7741793 17.3480258,9.79352129 17.4535104,7.40014585 C17.5325839,5.25437677 19.2463498,3.52125281 21.3027407,3.43872539 Z M44.4295756,4.7591962 C44.4559067,4.7867107 44.4559067,4.84172362 44.4295756,4.86923811 L43.5067847,5.83208476 C43.4804536,5.85959122 43.4277112,5.85959122 43.4013801,5.83208476 C42.8212944,5.14433486 41.8985836,4.7867107 40.9230504,5.00678649 C40.0266708,5.19935582 39.1302111,6.16220246 38.9720641,7.09753461 C38.6820213,8.80311194 39.9211861,10.2886858 41.5030561,10.2886858 C42.2676199,10.2886858 42.9531102,9.95857613 43.4013801,9.3533215 C43.4277112,9.32583915 43.4804536,9.32583915 43.5067847,9.3533215 L44.4295756,10.3161681 C44.4559067,10.3437309 44.4559067,10.3712132 44.4295756,10.3986956 C43.6913429,11.2240501 42.6367362,11.7466969 41.4767249,11.7466969 C39.1829535,11.7466969 37.363783,9.76595858 37.4692677,7.3726635 C37.5747523,5.25437677 39.262107,3.52125281 41.2921668,3.4112109 C42.5313316,3.35618994 43.6650117,3.87887697 44.4295756,4.7591962 Z M71.5062433,3.4112109 C72.7454081,3.35618994 73.8790882,3.87887697 74.6437321,4.7591962 C74.6700632,4.7867107 74.6700632,4.84172362 74.6437321,4.86923811 L74.6437321,4.86923811 L73.7209413,5.83208476 C73.6945301,5.85959122 73.6418678,5.85959122 73.6154566,5.83208476 C73.0354509,5.14433486 72.1126601,4.7867107 71.137207,5.00678649 C70.2407473,5.19935582 69.3443677,6.16220246 69.1861406,7.09753461 C68.8961778,8.80311194 70.1353427,10.2886858 71.7172126,10.2886858 C72.4817764,10.2886858 73.1672668,9.95857613 73.6154566,9.3533215 C73.6418678,9.32583915 73.6945301,9.32583915 73.7209413,9.3533215 L73.7209413,9.3533215 L74.6437321,10.3161681 C74.6700632,10.3437309 74.6700632,10.3712132 74.6437321,10.3986956 C73.9054994,11.2240501 72.8508928,11.7466969 71.6908014,11.7466969 C69.39711,11.7466969 67.5779395,9.76595858 67.6833442,7.3726635 C67.7888288,5.25437677 69.4761835,3.52125281 71.5062433,3.4112109 Z M29.9504032,3.4387495 C32.7451069,3.4387495 33.7997135,5.50198313 33.7733023,7.81278294 L33.7733023,7.81278294 L33.7733023,11.6092048 C33.7733023,11.6641695 33.72064,11.6917322 33.6942288,11.6917322 L33.6942288,11.6917322 L32.4023217,11.6917322 C32.3496594,11.6917322 32.3232482,11.6366872 32.3232482,11.6092048 L32.3232482,11.6092048 L32.3232482,7.81278294 C32.3232482,6.3272814 31.7695737,5.06183155 29.9240721,5.06183155 C28.5267603,5.06183155 27.5512271,6.13471207 27.5512271,7.6477281 L27.5512271,7.6477281 L27.5512271,11.6092048 C27.5512271,11.6641695 27.4984848,11.6917322 27.4721536,11.6917322 L27.4721536,11.6917322 L26.1802465,11.6917322 C26.1275041,11.6917322 26.101173,11.6366872 26.101173,11.6092048 L26.101173,11.6092048 L26.101173,3.65882529 C26.101173,3.60380433 26.1539153,3.57629787 26.1802465,3.57629787 L26.1802465,3.57629787 L27.4721536,3.57629787 C27.524896,3.57629787 27.5512271,3.63131883 27.5512271,3.65882529 L27.5512271,3.65882529 L27.5512271,4.62167194 C27.5512271,4.67669289 27.6567118,4.70419935 27.6830429,4.6491784 C28.1312328,3.98894299 29.1067659,3.4387495 29.9504032,3.4387495 Z M55.1864514,0 C55.2127825,0 55.2391937,0.0275064603 55.2655249,0.0825274166 L55.2655249,0.0825274166 L55.2655249,11.5816421 C55.2655249,11.6366872 55.2391937,11.6641695 55.1864514,11.6641695 L55.1864514,11.6641695 L53.8945442,11.6641695 C53.8418019,11.6641695 53.8154707,11.6366872 53.8154707,11.5816421 L53.8154707,11.5816421 L53.8154707,0.0825274166 C53.8154707,0.0275064603 53.8418019,0 53.8945442,0 L53.8945442,0 Z M78.598367,0 C78.6511093,0 78.6775205,0.0275064603 78.6775205,0.0825274166 L78.6775205,3.52126085 C78.6775205,3.54877534 78.7038517,3.5762818 78.7302628,3.5762818 L80.1801569,3.5762818 C80.2065681,3.5762818 80.2593905,3.63130276 80.2593905,3.65880922 L80.2593905,5.00679452 C80.2593905,5.06181548 80.2329793,5.08932194 80.1801569,5.08932194 L78.7302628,5.08932194 C78.7038517,5.08932194 78.6775205,5.11683644 78.6775205,5.1443429 L78.6775205,11.5816421 C78.6775205,11.6366872 78.6511093,11.6641695 78.598367,11.6641695 L77.3065399,11.6641695 C77.2537975,11.6641695 77.2274664,11.6366872 77.2274664,11.5816421 L77.2274664,5.1443429 C77.2274664,5.11683644 77.2010552,5.08932194 77.174724,5.08932194 L75.751001,5.08932194 C75.6982587,5.08932194 75.6719276,5.06181548 75.6719276,5.00679452 L75.6719276,3.65880922 C75.6719276,3.6037963 75.6982587,3.5762818 75.751001,3.5762818 L77.174724,3.5762818 C77.2010552,3.5762818 77.2274664,3.54877534 77.2274664,3.52126085 L77.2274664,0.0825274166 C77.2274664,0.0275064603 77.2537975,0 77.3065399,0 L78.598367,0 Z M82.8428847,3.57632198 C82.895707,3.57632198 82.9221182,3.63134294 82.9221182,3.6588494 L82.9221182,11.5817225 C82.9221182,11.6366872 82.895707,11.6642499 82.8428847,11.6642499 L81.5511376,11.6642499 C81.4983152,11.6642499 81.471904,11.6366872 81.471904,11.5817225 L81.471904,3.6588494 C81.471904,3.60382844 81.4983152,3.57632198 81.5511376,3.57632198 L82.8428847,3.57632198 Z M58.0074862,0 C58.0338173,0 58.0865597,0.0275064603 58.0865597,0.0825274166 L58.0865597,11.5816421 C58.0865597,11.6366872 58.0602285,11.6641695 58.0074862,11.6641695 L56.715579,11.6641695 C56.6629167,11.6641695 56.6365055,11.6366872 56.6365055,11.5816421 L56.6365055,0.0825274166 C56.6365055,0.0275064603 56.6629167,0 56.715579,0 L58.0074862,0 Z M85.3743568,3.57632198 C85.4271792,3.57632198 85.4535904,3.60382844 85.4535904,3.63134294 L87.5096612,9.93109377 C87.5624835,10.0686663 87.7209507,10.0686663 87.7729727,9.93109377 L89.8298438,3.63134294 C89.856255,3.60382844 89.8826662,3.57632198 89.9090774,3.57632198 L91.1744133,3.57632198 C91.2272357,3.57632198 91.2536468,3.63134294 91.2008245,3.68636389 L88.5909191,11.6092048 C88.5645079,11.6366872 88.5380967,11.6642499 88.5116856,11.6642499 L86.7189263,11.6642499 C86.6661039,11.6642499 86.6396927,11.6366872 86.6396927,11.6092048 L84.0297873,3.68636389 C84.0297873,3.63134294 84.0561985,3.57632198 84.1090209,3.57632198 L85.3743568,3.57632198 Z M48.8588915,4.9517816 C47.4351685,4.9517816 46.3014884,6.16221853 46.3014884,7.62024575 C46.3014884,9.0782569 47.4614997,10.2886858 48.8588915,10.2886858 C50.2562033,10.2886858 51.4162946,9.0782569 51.4162946,7.62024575 C51.4162946,6.16221853 50.2826145,4.9517816 48.8588915,4.9517816 Z M4.00744767,4.9517816 C2.61011185,4.9517816 1.45006054,6.1622105 1.45006054,7.62024575 C1.45006054,9.0782569 2.61011185,10.2886858 4.00744767,10.2886858 C5.40478348,10.2886858 6.56483479,9.0782569 6.56483479,7.62024575 C6.56483479,6.1622105 5.43114664,4.9517816 4.00744767,4.9517816 Z M12.312373,4.924243 C11.2577664,5.08929783 10.4141291,5.99712352 10.2295709,7.09751854 C9.93952807,8.91320206 11.4423245,10.481223 13.1824215,10.1785957 C14.2370282,9.98605848 15.1070767,9.10573925 15.2652236,8.00532012 C15.5552665,6.18969285 14.05247,4.62163176 12.312373,4.924243 Z M95.3401776,4.95184589 C93.9163746,4.95184589 92.7558831,6.13477636 92.7822943,7.64780846 L92.7822943,7.64780846 L92.7822943,7.86790836 C92.7822943,7.89539071 92.8351166,7.95043578 92.887939,7.92287307 C92.9407614,7.89539071 97.2121704,5.99721995 97.2121704,5.99721995 C97.2649928,5.96971349 97.2649928,5.91469254 97.2385816,5.85967158 C96.7903918,5.30947809 96.1045013,4.95184589 95.3401776,4.95184589 Z M63.0958813,4.9517816 C61.6721583,4.9517816 60.512147,6.13470404 60.5384781,7.6477281 L60.5384781,7.6477281 L60.5384781,7.867828 C60.5384781,7.89531035 60.5912205,7.95035542 60.6439628,7.92287307 C60.6967051,7.89531035 64.9677941,5.99715567 64.9677941,5.99715567 C65.0205364,5.96964921 65.0205364,5.91462825 64.9941252,5.85960729 C64.5459354,5.3094138 63.8604451,4.9517816 63.0958813,4.9517816 Z M21.4346366,4.9517816 C20.0372447,4.9517816 18.8772334,6.13470404 18.8772334,7.6477281 L18.8772334,7.6477281 L18.8772334,7.867828 C18.8772334,7.89531035 18.9299758,7.95035542 18.9826381,7.92287307 C19.0353804,7.89531035 23.3064693,5.99715567 23.3064693,5.99715567 C23.3592117,5.96964921 23.3592117,5.91462825 23.3328805,5.85960729 C22.8846907,5.3094138 22.1992004,4.9517816 21.4346366,4.9517816 Z M82.8428847,0.990393285 C82.895707,0.990393285 82.9221182,1.01790778 82.9221182,1.07292874 L82.9221182,2.42090601 C82.9221182,2.47592696 82.895707,2.50344146 82.8428847,2.50344146 L81.5511376,2.50344146 C81.4983152,2.50344146 81.471904,2.47592696 81.471904,2.42090601 L81.471904,1.07292874 C81.471904,1.01790778 81.4983152,0.990393285 81.5511376,0.990393285 L82.8428847,0.990393285 Z" id="Combined-Shape"></path>
                    </g>
                </g>
            </g>
        </g>
    </g>
</svg>