<?xml version="1.0" encoding="UTF-8"?>
<svg width="24px" height="24px" viewBox="0 0 24 24" version="1.1" xmlns="http://www.w3.org/2000/svg" xmlns:xlink="http://www.w3.org/1999/xlink">
    <title>logo-oc-monogram</title>
    <g id="01-UI-V2.0" stroke="none" stroke-width="1" fill="none" fill-rule="evenodd">
        <g id="03-OC-Stock-donations-320-Mobile" transform="translate(-16.000000, -56.000000)">
            <g id="Main-Nav" transform="translate(0.000000, 40.000000)">
                <g id="opencollective-icon" transform="translate(16.000000, 16.000000)">
                    <path d="M21.864825,5.165775 C23.211,7.1053425 23.999925,9.4605 23.999925,12.000225 C23.999925,14.53995 23.211,16.895325 21.864825,18.834675 L18.756375,15.7263 C19.366875,14.621775 19.71435,13.351425 19.71435,12.000225 C19.71435,10.649025 19.366875,9.3789 18.756375,8.274375 L21.864825,5.165775 Z" id="Path" fill="#E8E7E8"></path>
                    <path d="M18.83445,2.1351375 L15.72585,5.243535 C14.621325,4.6330875 13.3512,4.2856275 12,4.2856275 C7.73955,4.2856275 4.285635,7.73955 4.285635,12 C4.285635,16.26045 7.73955,19.71435 12,19.71435 C13.3512,19.71435 14.621325,19.36695 15.72585,18.75645 L18.83445,21.8649 C16.894875,23.211 14.539725,24 12,24 C5.37264,24 0,18.627375 0,12 C0,5.3726325 5.37264,0 12,0 C14.539725,0 16.894875,0.7889775 18.83445,2.1351375 Z" id="Path" fill="#FFFFFF"></path>
                </g>
            </g>
        </g>
    </g>
</svg>