<?xml version="1.0" encoding="UTF-8"?>
<svg width="29px" height="23px" viewBox="0 0 29 23" version="1.1" xmlns="http://www.w3.org/2000/svg" xmlns:xlink="http://www.w3.org/1999/xlink">
    <title>icn-menu</title>
    <g id="01-UI-V2.0" stroke="none" stroke-width="1" fill="none" fill-rule="evenodd">
        <g id="02.2-OC-Stock-Nav/Hover" transform="translate(-43.000000, -420.000000)" fill="#E8E9EB" fill-rule="nonzero">
            <g id="icn-menu" transform="translate(43.000000, 420.000000)">
                <path d="M27.5128205,0.0245726496 L1.48717949,0.0245726496 C0.665832936,0.0245726496 0,0.668163322 0,1.46207265 C0,2.25598198 0.665832936,2.89957265 1.48717949,2.89957265 L27.5128205,2.89957265 C28.3341671,2.89957265 29,2.25598198 29,1.46207265 C29,0.668163322 28.3341671,0.0245726496 27.5128205,0.0245726496 Z" id="04"></path>
                <path d="M27.5128205,0.0245726496 L1.48717949,0.0245726496 C0.665832936,0.0245726496 0,0.668163322 0,1.46207265 C0,2.25598198 0.665832936,2.89957265 1.48717949,2.89957265 L27.5128205,2.89957265 C28.3341671,2.89957265 29,2.25598198 29,1.46207265 C29,0.668163322 28.3341671,0.0245726496 27.5128205,0.0245726496 Z" id="03"></path>
                <path d="M10.468411,19.1912393 L1.53158902,19.1912393 C0.685715763,19.1912393 0,19.83483 0,20.6287393 C0,21.4226486 0.685715763,22.0662393 1.53158902,22.0662393 L10.468411,22.0662393 C11.3142842,22.0662393 12,21.4226486 12,20.6287393 C12,19.83483 11.3142842,19.1912393 10.468411,19.1912393 Z" id="02"></path>
                <path d="M18.5364069,9.60790598 L1.46359312,9.60790598 C0.65527296,9.60790598 0,10.2514967 0,11.045406 C0,11.8393153 0.65527296,12.482906 1.46359312,12.482906 L18.5364069,12.482906 C19.344727,12.482906 20,11.8393153 20,11.045406 C20,10.2514967 19.344727,9.60790598 18.5364069,9.60790598 Z" id="01"></path>
            </g>
        </g>
    </g>
</svg>